ModelForces
version=1
nRows=4
nColumns=155
inDegrees=no

This file contains the forces exerted on a model during a simulation.

A force is a generalized force, meaning that it can be either a force (N) or a torque (Nm).

Units are S.I. units (second, meters, Newtons, ...)
Angles are in degrees.

endheader
time	glut_med1_r	glut_med2_r	glut_med3_r	glut_min1_r	glut_min2_r	glut_min3_r	semimem_r	semiten_r	bifemlh_r	bifemsh_r	sar_r	add_long_r	add_brev_r	add_mag1_r	add_mag2_r	add_mag3_r	tfl_r	pect_r	grac_r	glut_max1_r	glut_max2_r	glut_max3_r	iliacus_r	psoas_r	quad_fem_r	gem_r	peri_r	rect_fem_r	vas_med_r	vas_int_r	vas_lat_r	med_gas_r	lat_gas_r	soleus_r	tib_post_r	flex_dig_r	flex_hal_r	tib_ant_r	per_brev_r	per_long_r	per_tert_r	ext_dig_r	ext_hal_r	glut_med1_l	glut_med2_l	glut_med3_l	glut_min1_l	glut_min2_l	glut_min3_l	semimem_l	semiten_l	bifemlh_l	bifemsh_l	sar_l	add_long_l	add_brev_l	add_mag1_l	add_mag2_l	add_mag3_l	tfl_l	pect_l	grac_l	glut_max1_l	glut_max2_l	glut_max3_l	iliacus_l	psoas_l	quad_fem_l	gem_l	peri_l	rect_fem_l	vas_med_l	vas_int_l	vas_lat_l	med_gas_l	lat_gas_l	soleus_l	tib_post_l	flex_dig_l	flex_hal_l	tib_ant_l	per_brev_l	per_long_l	per_tert_l	ext_dig_l	ext_hal_l	ercspn_r	ercspn_l	intobl_r	intobl_l	extobl_r	extobl_l	femur_lat_meniscii_r.femur_lat_r.force.X	femur_lat_meniscii_r.femur_lat_r.force.Y	femur_lat_meniscii_r.femur_lat_r.force.Z	femur_lat_meniscii_r.femur_lat_r.torque.X	femur_lat_meniscii_r.femur_lat_r.torque.Y	femur_lat_meniscii_r.femur_lat_r.torque.Z	femur_lat_meniscii_r.meniscus_lat_r.force.X	femur_lat_meniscii_r.meniscus_lat_r.force.Y	femur_lat_meniscii_r.meniscus_lat_r.force.Z	femur_lat_meniscii_r.meniscus_lat_r.torque.X	femur_lat_meniscii_r.meniscus_lat_r.torque.Y	femur_lat_meniscii_r.meniscus_lat_r.torque.Z	femur_med_meniscii_r.femur_med_r.force.X	femur_med_meniscii_r.femur_med_r.force.Y	femur_med_meniscii_r.femur_med_r.force.Z	femur_med_meniscii_r.femur_med_r.torque.X	femur_med_meniscii_r.femur_med_r.torque.Y	femur_med_meniscii_r.femur_med_r.torque.Z	femur_med_meniscii_r.meniscus_med_r.force.X	femur_med_meniscii_r.meniscus_med_r.force.Y	femur_med_meniscii_r.meniscus_med_r.force.Z	femur_med_meniscii_r.meniscus_med_r.torque.X	femur_med_meniscii_r.meniscus_med_r.torque.Y	femur_med_meniscii_r.meniscus_med_r.torque.Z	femur_med_tibia_r.tibia_upper_r.force.X	femur_med_tibia_r.tibia_upper_r.force.Y	femur_med_tibia_r.tibia_upper_r.force.Z	femur_med_tibia_r.tibia_upper_r.torque.X	femur_med_tibia_r.tibia_upper_r.torque.Y	femur_med_tibia_r.tibia_upper_r.torque.Z	femur_med_tibia_r.femur_med_r.force.X	femur_med_tibia_r.femur_med_r.force.Y	femur_med_tibia_r.femur_med_r.force.Z	femur_med_tibia_r.femur_med_r.torque.X	femur_med_tibia_r.femur_med_r.torque.Y	femur_med_tibia_r.femur_med_r.torque.Z	femur_lat_tibia_r.tibia_upper_r.force.X	femur_lat_tibia_r.tibia_upper_r.force.Y	femur_lat_tibia_r.tibia_upper_r.force.Z	femur_lat_tibia_r.tibia_upper_r.torque.X	femur_lat_tibia_r.tibia_upper_r.torque.Y	femur_lat_tibia_r.tibia_upper_r.torque.Z	femur_lat_tibia_r.femur_lat_r.force.X	femur_lat_tibia_r.femur_lat_r.force.Y	femur_lat_tibia_r.femur_lat_r.force.Z	femur_lat_tibia_r.femur_lat_r.torque.X	femur_lat_tibia_r.femur_lat_r.torque.Y	femur_lat_tibia_r.femur_lat_r.torque.Z	aACL_R	pACL_R	aPCL_R	pPCL_R	aMCL_R	mMCL_R	pMCL_R	aLCL_R	mLCL_R	pLCL_R	aPCL_L	pPCL_L	aMCL_L	aLCL_L
      0.10884186	      9.16428130	     11.28551106	     12.17072205	      5.15036412	      5.90405116	      6.55617114	    111.94077229	    164.91746650	    241.05922859	    374.40133971	    124.88732492	     11.27093825	      7.97250514	      0.00000000	      4.83731223	      8.47483977	      5.02908372	      2.95393572	     98.54792310	      7.29599303	     11.11119138	      8.38491952	     33.00906215	     24.75595803	      7.04133163	      4.55726090	      4.24234634	     38.55158910	      0.00000000	      0.00000000	      0.00000000	     25.48051101	      0.02996884	      0.00000000	      0.00000000	      2.45217747	      0.07162108	     30.18796334	      2.29104393	      3.11700867	     10.75270865	     17.14749499	      5.39591347	      9.16428130	     11.28551106	     12.17072205	      5.15036412	      5.90405116	      6.55617114	      0.00000000	      8.50625528	     14.90599371	     14.18867521	      2.93475453	     11.27093825	      7.97250514	      0.00000000	      4.83731223	      8.47483977	      6.84299543	      2.95393572	      3.04468615	      7.29599303	     11.11119138	      8.38491952	     33.00906215	     24.75595803	      7.04133163	      4.55726090	      4.24234634	     23.40334257	      0.00000000	      0.00000000	      0.00000000	     16.50107197	      8.51802271	     58.11040094	     57.67644676	      7.81977151	      7.20928214	     16.80047720	      9.44525959	     21.77458097	      3.82139129	     11.65632187	      3.94023521	     48.50935445	     48.50935445	     18.41797571	     18.41797571	     35.35633636	     35.35633636	      8.63149892	    172.47407199	     26.85240570	    -15.20571612	      0.25847119	      2.92326238	     -8.63149892	   -172.47407199	    -26.85240570	      5.29614300	     -0.56548796	      2.23407450	    -16.99464807	     28.64121428	      1.77315462	     -0.04862513	      0.40084439	     -6.97752269	     16.99464807	    -28.64121428	     -1.77315462	     -0.56948088	     -0.38420471	      0.78456309	    -60.42517562	   -489.51662496	    121.11189982	    -11.83631868	      1.96223877	      2.02990876	     60.42517562	    489.51662496	   -121.11189982	     59.19484162	     -0.78630839	     26.35115489	    -55.67598595	   -280.74395562	    -69.92307085	      9.50302223	     -2.18921224	      1.22550826	     55.67598595	    280.74395562	     69.92307085	    -35.66118062	      1.31997619	     23.09284627	     17.91382403	    -11.18988830	      0.00000000	      0.00000000	      0.00000000	      0.00000000	    -31.57395520	      0.00000000	      0.00000000	      0.00000000	      0.00000000	      0.00000000	      0.00000001	      0.00000000
      0.10944364	      9.58788069	     11.24045399	     12.12229272	      5.13048307	      5.88213358	      6.53439427	    111.42547180	    164.49941276	    239.16082990	    372.74997789	    124.88323243	     11.22530389	      7.94200646	      0.00000000	      4.82527878	      8.43979793	      5.03455857	      3.36276711	     98.42469786	      7.26692272	     11.06635484	      8.35065979	     32.92451121	     24.65968521	      7.02375017	      4.54339826	      4.34590172	     38.43042647	      0.00000000	      0.00000000	      0.00000000	     26.80420740	      0.04079279	      0.00000000	      0.00000000	      2.21917431	      0.00000000	     30.04399032	      2.44758499	      3.17463720	      3.38763860	     17.16978107	      5.37891158	      9.58788069	     11.24045399	     12.12229272	      5.13048307	      5.88213358	      6.53439427	      0.00000000	      8.47051896	     14.89837329	     14.13271250	      2.92347695	     11.22530389	      7.94200646	      0.00000000	      4.82527878	      8.43979793	      6.82232125	      3.36276711	      3.03279161	      7.26692272	     11.06635484	      8.35065979	     32.92451121	     24.65968521	      7.02375017	      4.54339826	      4.34590172	     23.31635555	      0.00000000	      0.00000000	      0.00000000	     16.70561558	      8.59345730	     58.12792426	     57.61008681	      7.75911831	      7.14451294	     16.78026210	      9.41953751	     21.74689039	      3.80670126	     11.71288842	      3.95630798	     48.32171248	     48.32171248	     18.34191671	     18.34191671	     35.28627224	     35.28627224	      9.03521402	    173.10667554	     26.28779475	    -14.98364658	      0.26196198	      3.07327366	     -9.03521402	   -173.10667554	    -26.28779475	      5.28743797	     -0.56540809	      2.25756025	    -16.69776886	     29.25955482	      1.90596739	     -0.08726293	      0.39493549	     -6.85050271	     16.69776886	    -29.25955482	     -1.90596739	     -0.58102466	     -0.38087241	      0.77988928	    -62.84202425	   -490.21807570	    121.28539970	    -11.86604789	      2.01138245	      1.98013183	     62.84202425	    490.21807570	   -121.28539970	     59.28063658	     -0.82859603	     27.36760519	    -57.35310155	   -276.20973697	    -68.42415904	      9.32526677	     -2.21990227	      1.14564965	     57.35310155	    276.20973697	     68.42415904	    -34.92578640	      1.35974675	     23.78490933	     17.27930946	    -11.63570460	      0.00000000	     65.78612383	      0.00000000	      0.00000000	    -32.33702059	      0.00000000	      0.00000000	      0.00000000	      0.00000000	      0.00000000	      0.00000001	      0.00000000
      0.11016952	     10.04175793	     11.18658010	     12.06432187	      5.10671874	      5.85593748	      6.50800287	    110.80279618	    164.01364044	    236.71155490	    370.04145167	    124.83066184	     11.17076196	      7.90554948	      0.00000000	      4.81023513	      8.39784264	      5.03411612	      3.67429356	     98.25288987	      7.23213876	     11.01276094	      8.30971172	     32.82347482	     24.54463490	      7.00117337	      4.52682331	      4.46487213	     38.29633594	      0.00000000	      0.00000000	      0.00000000	     28.41744298	      0.04736161	      0.00000000	      0.00000000	      1.94162906	      0.00000000	     29.89544525	      2.64934653	      3.26136032	      7.20399268	     17.26019827	      5.35869505	     10.04175793	     11.18658010	     12.06432187	      5.10671874	      5.85593748	      6.50800287	      0.00000000	      8.42780684	     14.88787347	     14.06582336	      2.90999636	     11.17076196	      7.90554948	      0.00000000	      4.81023513	      8.39784264	      6.79753779	      3.67429356	      3.01857426	      7.23213876	     11.01276094	      8.30971172	     32.82347482	     24.54463490	      7.00117337	      4.52682331	      4.46487213	     23.21168013	      0.00000000	      0.00000000	      0.00000000	     16.94331246	      8.68104687	     58.14113378	     57.52916829	      7.68736470	      7.06792662	     16.75433544	      9.38823496	     21.71276439	      3.78913736	     11.77532389	      3.97268072	     48.09742051	     48.09742051	     18.25100992	     18.25100992	     35.20255358	     35.20255358	     12.91310041	    179.74523857	     24.75334795	    -14.49537989	      0.34712381	      4.66008217	    -12.91310041	   -179.74523857	    -24.75334795	      5.39552355	     -0.64398064	      2.24265926	    -16.19253412	     29.61837857	      1.91083155	     -0.07799129	      0.38237072	     -6.63784871	     16.19253412	    -29.61837857	     -1.91083155	     -0.59214620	     -0.36999192	      0.76717744	    -70.25135161	   -503.96125567	    125.13197180	    -12.23324341	      2.17110687	      1.86424346	     70.25135161	    503.96125567	   -125.13197180	     61.13488288	     -0.94872953	     30.51307007	    -59.52919001	   -275.08604293	    -67.00942105	      9.23005548	     -2.26568029	      1.10123398	     59.52919001	    275.08604293	     67.00942105	    -34.29841016	      1.41160963	     24.67486944	     17.42069730	    -11.36376361	      0.00000000	     57.61737258	      0.00000000	      0.00000000	    -35.93560307	      0.00000000	      0.00000000	      0.00000000	      0.00000000	      0.00000000	      0.00000001	      0.00000000
      0.11164934	     10.80566016	     11.07834858	     11.94766690	      5.05899632	      5.80334015	      6.45387757	    109.87610627	    163.56553342	    232.03124770	    365.83209481	    125.03304587	     11.06125336	      7.83233479	      0.00000000	      4.77801569	      8.31337492	      5.02871523	      3.98404043	     98.21812617	      7.16218499	     10.90514024	      8.22749406	     32.62067615	     24.31368626	      6.95148208	      4.49352534	      4.68878419	     37.99754136	      0.00000000	      0.00000000	      0.00000000	     31.93607314	      0.08337332	      0.00000000	      0.00000000	      1.39600742	      0.00000000	     29.44508562	      3.10257684	      3.50486943	     16.54211861	     17.44999073	      5.30888847	     10.80566016	     11.07834858	     11.94766690	      5.05899632	      5.80334015	      6.45387757	      0.00000000	      8.34204914	     14.86214873	     13.93151467	      2.88292462	     11.06125336	      7.83233479	      0.00000000	      4.77801569	      8.31337492	      6.74754290	      3.98404043	      2.99002532	      7.16218499	     10.90514024	      8.22749406	     32.62067615	     24.31368626	      6.95148208	      4.49352534	      4.68878419	     22.99924984	      0.00000000	      0.00000000	      0.00000000	     17.39878844	      8.84858864	     58.14376829	     57.36139489	      7.54597647	      6.91721283	     16.69648490	      9.32356512	     21.64080316	      3.75385348	     11.88209825	      3.99589073	     47.64701201	     47.64701201	     18.06848398	     18.06848398	     35.03453562	     35.03453562	     16.22573347	    175.37868942	     24.82256103	    -14.42572528	      0.41999789	      6.04133791	    -16.22573347	   -175.37868942	    -24.82256103	      5.28235358	     -0.72889604	      2.11785499	    -14.93402544	     27.65075156	      2.40233511	     -0.33178269	      0.34431716	     -6.13010109	     14.93402544	    -27.65075156	     -2.40233511	     -0.53167647	     -0.34107375	      0.72510837	    -85.45734024	   -524.09559755	    130.31250494	    -12.75190696	      2.48100719	      1.59761387	     85.45734024	    524.09559755	   -130.31250494	     63.65337970	     -1.20198654	     36.92695876	    -62.28016466	   -269.97149863	    -66.48696233	      9.06646233	     -2.35015744	      1.05244879	     62.28016466	    269.97149863	     66.48696233	    -33.95801481	      1.48498948	     25.77718238	     18.88543855	     -9.76765895	      0.00000000	     54.84984899	      0.00000000	      0.00000000	    -34.84505808	      0.00000000	      0.00000000	      0.00000000	      0.00000000	      0.00000000	      0.00000001	      0.00000000
